# xmcd
#
# Track frame offsets:
#	150
#	12350
#	25022
#	37605
#	50700
#	61537
#	73457
#	84392
#	94012
#	108057
#	122187
#	133985
#
# Disc length: 1967 seconds
#
# Revision: 1
# Processed by: cddbd v1.5.2PL0 Copyright (c) Steve Scherf et al.
# Submitted via: audiograbber 1.83.01
#
DISCID=9707ad0c
DTITLE=Various Artist - Ultimate Country Classics - Vol3. - Disc1
DYEAR=1900
DGENRE=Country
TTITLE0=Hank Williams, Sr. - Your Cheatin Heart
TTITLE1=Patsy Cline - I Fall To Pieces
TTITLE2=George Jones - White Lighting
TTITLE3=Patsy Cline - Allegheny Moon
TTITLE4=Roger Miller - King Of The Road
TTITLE5=Connie Francis - Everybody`s Somebody`s Fool
TTITLE6=Conway Twitty - Hello Darlin`
TTITLE7=Loretta Lynn - Don`t Come Home A-Drinkin(With Lovin On Your Mind)
TTITLE8=Hank Williams, Jr. - Standing In The Shadows
TTITLE9=Don Williams - Tulsa Time
TTITLE10=Kitty Wells - Heartbreak USA
TTITLE11=Ernest Tubb - Goodnight Irene
EXTD=
EXTT0=
EXTT1=
EXTT2=
EXTT3=
EXTT4=
EXTT5=
EXTT6=
EXTT7=
EXTT8=
EXTT9=
EXTT10=
EXTT11=
PLAYORDER=
